<mxfile host="Electron" modified="2025-03-17T12:43:12.331Z" agent="Mozilla/5.0 (Windows NT 10.0; Win64; x64) AppleWebKit/537.36 (KHTML, like Gecko) draw.io/22.0.2 Chrome/114.0.5735.289 Electron/25.8.4 Safari/537.36" etag="SxY3i0eett42VVxKCifW" version="22.0.2" type="device">
  <diagram name="Page-1" id="aOkxQQWzQHMo4vjzEH-l">
    <mxGraphModel dx="1276" dy="606" grid="1" gridSize="10" guides="1" tooltips="1" connect="1" arrows="1" fold="1" page="1" pageScale="1" pageWidth="827" pageHeight="1169" math="0" shadow="0">
      <root>
        <mxCell id="0" />
        <mxCell id="1" parent="0" />
        <mxCell id="RgYUaRzuyxOdfI_jxjAR-1" style="edgeStyle=orthogonalEdgeStyle;rounded=0;orthogonalLoop=1;jettySize=auto;html=1;exitX=0.5;exitY=1;exitDx=0;exitDy=0;entryX=0.5;entryY=0;entryDx=0;entryDy=0;" edge="1" parent="1" source="RgYUaRzuyxOdfI_jxjAR-2" target="RgYUaRzuyxOdfI_jxjAR-4">
          <mxGeometry relative="1" as="geometry">
            <mxPoint x="545" y="265" as="targetPoint" />
          </mxGeometry>
        </mxCell>
        <mxCell id="RgYUaRzuyxOdfI_jxjAR-2" value="Encryptor" style="ellipse;whiteSpace=wrap;html=1;" vertex="1" parent="1">
          <mxGeometry x="500" y="190" width="90" height="50" as="geometry" />
        </mxCell>
        <mxCell id="RgYUaRzuyxOdfI_jxjAR-3" style="edgeStyle=orthogonalEdgeStyle;rounded=0;orthogonalLoop=1;jettySize=auto;html=1;exitX=0.5;exitY=1;exitDx=0;exitDy=0;entryX=0.5;entryY=0;entryDx=0;entryDy=0;" edge="1" parent="1" source="RgYUaRzuyxOdfI_jxjAR-4" target="RgYUaRzuyxOdfI_jxjAR-9">
          <mxGeometry relative="1" as="geometry" />
        </mxCell>
        <mxCell id="RgYUaRzuyxOdfI_jxjAR-4" value="Escalate to Trusted Installer" style="rounded=0;whiteSpace=wrap;html=1;" vertex="1" parent="1">
          <mxGeometry x="500" y="265" width="90" height="40" as="geometry" />
        </mxCell>
        <mxCell id="RgYUaRzuyxOdfI_jxjAR-5" style="edgeStyle=orthogonalEdgeStyle;rounded=0;orthogonalLoop=1;jettySize=auto;html=1;exitX=0.5;exitY=1;exitDx=0;exitDy=0;entryX=0.5;entryY=0;entryDx=0;entryDy=0;" edge="1" parent="1" source="RgYUaRzuyxOdfI_jxjAR-9" target="RgYUaRzuyxOdfI_jxjAR-11">
          <mxGeometry relative="1" as="geometry" />
        </mxCell>
        <mxCell id="RgYUaRzuyxOdfI_jxjAR-6" style="edgeStyle=orthogonalEdgeStyle;rounded=0;orthogonalLoop=1;jettySize=auto;html=1;exitX=0.5;exitY=1;exitDx=0;exitDy=0;entryX=0.5;entryY=0;entryDx=0;entryDy=0;" edge="1" parent="1" source="RgYUaRzuyxOdfI_jxjAR-9" target="RgYUaRzuyxOdfI_jxjAR-17">
          <mxGeometry relative="1" as="geometry" />
        </mxCell>
        <mxCell id="RgYUaRzuyxOdfI_jxjAR-7" style="edgeStyle=orthogonalEdgeStyle;rounded=0;orthogonalLoop=1;jettySize=auto;html=1;exitX=0.5;exitY=1;exitDx=0;exitDy=0;entryX=0.5;entryY=0;entryDx=0;entryDy=0;" edge="1" parent="1" source="RgYUaRzuyxOdfI_jxjAR-9" target="RgYUaRzuyxOdfI_jxjAR-13">
          <mxGeometry relative="1" as="geometry" />
        </mxCell>
        <mxCell id="RgYUaRzuyxOdfI_jxjAR-8" style="edgeStyle=orthogonalEdgeStyle;rounded=0;orthogonalLoop=1;jettySize=auto;html=1;exitX=0.5;exitY=1;exitDx=0;exitDy=0;entryX=0.5;entryY=0;entryDx=0;entryDy=0;" edge="1" parent="1" source="RgYUaRzuyxOdfI_jxjAR-9" target="RgYUaRzuyxOdfI_jxjAR-15">
          <mxGeometry relative="1" as="geometry" />
        </mxCell>
        <mxCell id="RgYUaRzuyxOdfI_jxjAR-9" value="Modify windows registry to:" style="rounded=0;whiteSpace=wrap;html=1;" vertex="1" parent="1">
          <mxGeometry x="500" y="330" width="90" height="40" as="geometry" />
        </mxCell>
        <mxCell id="RgYUaRzuyxOdfI_jxjAR-10" style="edgeStyle=orthogonalEdgeStyle;rounded=0;orthogonalLoop=1;jettySize=auto;html=1;exitX=0.5;exitY=1;exitDx=0;exitDy=0;entryX=0.5;entryY=0;entryDx=0;entryDy=0;" edge="1" parent="1" source="RgYUaRzuyxOdfI_jxjAR-11" target="RgYUaRzuyxOdfI_jxjAR-19">
          <mxGeometry relative="1" as="geometry" />
        </mxCell>
        <mxCell id="RgYUaRzuyxOdfI_jxjAR-11" value="Delete shadow copies" style="rounded=0;whiteSpace=wrap;html=1;" vertex="1" parent="1">
          <mxGeometry x="460" y="410" width="80" height="40" as="geometry" />
        </mxCell>
        <mxCell id="RgYUaRzuyxOdfI_jxjAR-12" style="edgeStyle=orthogonalEdgeStyle;rounded=0;orthogonalLoop=1;jettySize=auto;html=1;exitX=0.5;exitY=1;exitDx=0;exitDy=0;entryX=0.5;entryY=0;entryDx=0;entryDy=0;" edge="1" parent="1" source="RgYUaRzuyxOdfI_jxjAR-13" target="RgYUaRzuyxOdfI_jxjAR-19">
          <mxGeometry relative="1" as="geometry" />
        </mxCell>
        <mxCell id="RgYUaRzuyxOdfI_jxjAR-13" value="Disable Windows firewall" style="rounded=0;whiteSpace=wrap;html=1;" vertex="1" parent="1">
          <mxGeometry x="374" y="410" width="80" height="40" as="geometry" />
        </mxCell>
        <mxCell id="RgYUaRzuyxOdfI_jxjAR-14" style="edgeStyle=orthogonalEdgeStyle;rounded=0;orthogonalLoop=1;jettySize=auto;html=1;exitX=0.5;exitY=1;exitDx=0;exitDy=0;entryX=0.5;entryY=0;entryDx=0;entryDy=0;" edge="1" parent="1" source="RgYUaRzuyxOdfI_jxjAR-15" target="RgYUaRzuyxOdfI_jxjAR-19">
          <mxGeometry relative="1" as="geometry" />
        </mxCell>
        <mxCell id="RgYUaRzuyxOdfI_jxjAR-15" value="Delete Windows event logs" style="rounded=0;whiteSpace=wrap;html=1;" vertex="1" parent="1">
          <mxGeometry x="640" y="410" width="80" height="40" as="geometry" />
        </mxCell>
        <mxCell id="RgYUaRzuyxOdfI_jxjAR-16" style="edgeStyle=orthogonalEdgeStyle;rounded=0;orthogonalLoop=1;jettySize=auto;html=1;exitX=0.5;exitY=1;exitDx=0;exitDy=0;entryX=0.5;entryY=0;entryDx=0;entryDy=0;" edge="1" parent="1" source="RgYUaRzuyxOdfI_jxjAR-17" target="RgYUaRzuyxOdfI_jxjAR-19">
          <mxGeometry relative="1" as="geometry" />
        </mxCell>
        <mxCell id="RgYUaRzuyxOdfI_jxjAR-17" value="disable antivirus" style="rounded=0;whiteSpace=wrap;html=1;" vertex="1" parent="1">
          <mxGeometry x="550" y="410" width="80" height="40" as="geometry" />
        </mxCell>
        <mxCell id="RgYUaRzuyxOdfI_jxjAR-18" style="edgeStyle=orthogonalEdgeStyle;rounded=0;orthogonalLoop=1;jettySize=auto;html=1;exitX=0.5;exitY=1;exitDx=0;exitDy=0;entryX=0.5;entryY=0;entryDx=0;entryDy=0;" edge="1" parent="1" source="RgYUaRzuyxOdfI_jxjAR-19" target="RgYUaRzuyxOdfI_jxjAR-21">
          <mxGeometry relative="1" as="geometry" />
        </mxCell>
        <mxCell id="RgYUaRzuyxOdfI_jxjAR-19" value="start encryption process" style="rounded=0;whiteSpace=wrap;html=1;" vertex="1" parent="1">
          <mxGeometry x="500" y="500" width="90" height="40" as="geometry" />
        </mxCell>
        <mxCell id="RgYUaRzuyxOdfI_jxjAR-20" style="edgeStyle=orthogonalEdgeStyle;rounded=0;orthogonalLoop=1;jettySize=auto;html=1;exitX=0.5;exitY=1;exitDx=0;exitDy=0;entryX=0.5;entryY=0;entryDx=0;entryDy=0;" edge="1" parent="1" source="RgYUaRzuyxOdfI_jxjAR-21" target="RgYUaRzuyxOdfI_jxjAR-22">
          <mxGeometry relative="1" as="geometry" />
        </mxCell>
        <mxCell id="RgYUaRzuyxOdfI_jxjAR-21" value="Self delete&amp;nbsp;" style="rounded=0;whiteSpace=wrap;html=1;" vertex="1" parent="1">
          <mxGeometry x="500" y="560" width="90" height="40" as="geometry" />
        </mxCell>
        <mxCell id="RgYUaRzuyxOdfI_jxjAR-22" value="END" style="ellipse;whiteSpace=wrap;html=1;" vertex="1" parent="1">
          <mxGeometry x="500" y="620" width="90" height="50" as="geometry" />
        </mxCell>
      </root>
    </mxGraphModel>
  </diagram>
</mxfile>
